<mxfile host="app.diagrams.net" modified="2023-05-17T15:01:14.561Z" agent="Mozilla/5.0 (Windows NT 10.0; Win64; x64) AppleWebKit/537.36 (KHTML, like Gecko) Chrome/113.0.0.0 Safari/537.36" version="21.3.2" etag="0BIPMVLIQLGMFmy4k-E4" type="github">
  <diagram name="Trang-1" id="35TY84kjAza82l5DEhOr">
    <mxGraphModel>
      <root>
        <mxCell id="0" />
        <mxCell id="1" parent="0" />
      </root>
    </mxGraphModel>
  </diagram>
</mxfile>
